<mxfile host="Electron" modified="2024-09-30T10:11:10.042Z" agent="Mozilla/5.0 (Windows NT 10.0; Win64; x64) AppleWebKit/537.36 (KHTML, like Gecko) draw.io/24.2.5 Chrome/120.0.6099.109 Electron/28.1.0 Safari/537.36" etag="tWxt_YqNnSchPWp9Diom" version="24.2.5" type="device">
  <diagram name="第 1 页" id="_mUhBq2on4v-ips0oYVc">
    <mxGraphModel dx="99" dy="643" grid="1" gridSize="10" guides="1" tooltips="1" connect="1" arrows="1" fold="1" page="1" pageScale="1" pageWidth="827" pageHeight="1169" math="0" shadow="0">
      <root>
        <mxCell id="0" />
        <mxCell id="1" parent="0" />
        <mxCell id="QSDiJJws5jMQY8qZcdJ0-32" value="" style="rounded=0;whiteSpace=wrap;html=1;fillColor=#dae8fc;strokeColor=#6c8ebf;" parent="1" vertex="1">
          <mxGeometry x="1660" y="280" width="350" height="100" as="geometry" />
        </mxCell>
        <mxCell id="QSDiJJws5jMQY8qZcdJ0-33" value="Launcher进程" style="text;html=1;align=center;verticalAlign=middle;whiteSpace=wrap;rounded=0;" parent="1" vertex="1">
          <mxGeometry x="1795" y="230" width="80" height="30" as="geometry" />
        </mxCell>
        <mxCell id="QSDiJJws5jMQY8qZcdJ0-35" value="SystemServier进程" style="text;html=1;align=center;verticalAlign=middle;whiteSpace=wrap;rounded=0;" parent="1" vertex="1">
          <mxGeometry x="2190" y="230" width="120" height="30" as="geometry" />
        </mxCell>
        <mxCell id="QSDiJJws5jMQY8qZcdJ0-47" value="" style="rounded=0;whiteSpace=wrap;html=1;fillColor=#d5e8d4;strokeColor=#82b366;" parent="1" vertex="1">
          <mxGeometry x="2110" y="280" width="280" height="510" as="geometry" />
        </mxCell>
        <mxCell id="QSDiJJws5jMQY8qZcdJ0-48" value="" style="rounded=0;whiteSpace=wrap;html=1;fillColor=#f8cecc;strokeColor=#b85450;" parent="1" vertex="1">
          <mxGeometry x="1640" y="850" width="740" height="110" as="geometry" />
        </mxCell>
        <mxCell id="QSDiJJws5jMQY8qZcdJ0-49" value="zygeto进程" style="text;html=1;align=center;verticalAlign=middle;whiteSpace=wrap;rounded=0;" parent="1" vertex="1">
          <mxGeometry x="1940" y="850" width="100" height="30" as="geometry" />
        </mxCell>
        <mxCell id="QSDiJJws5jMQY8qZcdJ0-50" value="" style="rounded=0;whiteSpace=wrap;html=1;fillColor=#e1d5e7;strokeColor=#9673a6;" parent="1" vertex="1">
          <mxGeometry x="1660" y="450" width="350" height="340" as="geometry" />
        </mxCell>
        <mxCell id="QSDiJJws5jMQY8qZcdJ0-51" value="新app进程" style="text;html=1;align=center;verticalAlign=middle;whiteSpace=wrap;rounded=0;" parent="1" vertex="1">
          <mxGeometry x="1815" y="420" width="60" height="30" as="geometry" />
        </mxCell>
        <mxCell id="QSDiJJws5jMQY8qZcdJ0-52" value="ActivityManagerProxy" style="rounded=0;whiteSpace=wrap;html=1;" parent="1" vertex="1">
          <mxGeometry x="1760" y="305" width="160" height="45" as="geometry" />
        </mxCell>
        <mxCell id="QSDiJJws5jMQY8qZcdJ0-68" value="" style="edgeStyle=orthogonalEdgeStyle;rounded=0;orthogonalLoop=1;jettySize=auto;html=1;" parent="1" source="QSDiJJws5jMQY8qZcdJ0-53" target="QSDiJJws5jMQY8qZcdJ0-55" edge="1">
          <mxGeometry relative="1" as="geometry" />
        </mxCell>
        <mxCell id="QSDiJJws5jMQY8qZcdJ0-69" value="5、realStartActivity()" style="edgeLabel;html=1;align=center;verticalAlign=middle;resizable=0;points=[];" parent="QSDiJJws5jMQY8qZcdJ0-68" vertex="1" connectable="0">
          <mxGeometry x="-0.0302" y="-3" relative="1" as="geometry">
            <mxPoint as="offset" />
          </mxGeometry>
        </mxCell>
        <mxCell id="QSDiJJws5jMQY8qZcdJ0-53" value="ActivityServierManger" style="rounded=0;whiteSpace=wrap;html=1;" parent="1" vertex="1">
          <mxGeometry x="2170" y="330" width="160" height="60" as="geometry" />
        </mxCell>
        <mxCell id="QSDiJJws5jMQY8qZcdJ0-54" value="ActivityThread.main()" style="rounded=0;whiteSpace=wrap;html=1;" parent="1" vertex="1">
          <mxGeometry x="1730" y="730" width="180" height="40" as="geometry" />
        </mxCell>
        <mxCell id="QSDiJJws5jMQY8qZcdJ0-71" value="" style="edgeStyle=orthogonalEdgeStyle;rounded=0;orthogonalLoop=1;jettySize=auto;html=1;" parent="1" source="QSDiJJws5jMQY8qZcdJ0-55" target="QSDiJJws5jMQY8qZcdJ0-57" edge="1">
          <mxGeometry relative="1" as="geometry">
            <mxPoint x="2120" y="507.55555555555543" as="targetPoint" />
          </mxGeometry>
        </mxCell>
        <mxCell id="QSDiJJws5jMQY8qZcdJ0-72" value="6、scheduleLauncherActivity()" style="edgeLabel;html=1;align=center;verticalAlign=middle;resizable=0;points=[];" parent="QSDiJJws5jMQY8qZcdJ0-71" vertex="1" connectable="0">
          <mxGeometry x="0.2481" y="5" relative="1" as="geometry">
            <mxPoint x="16" as="offset" />
          </mxGeometry>
        </mxCell>
        <mxCell id="QSDiJJws5jMQY8qZcdJ0-55" value="ApplicationThreadProxy" style="rounded=0;whiteSpace=wrap;html=1;" parent="1" vertex="1">
          <mxGeometry x="2170" y="455" width="160" height="55" as="geometry" />
        </mxCell>
        <mxCell id="QSDiJJws5jMQY8qZcdJ0-76" value="" style="edgeStyle=orthogonalEdgeStyle;rounded=0;orthogonalLoop=1;jettySize=auto;html=1;" parent="1" source="QSDiJJws5jMQY8qZcdJ0-57" target="QSDiJJws5jMQY8qZcdJ0-58" edge="1">
          <mxGeometry relative="1" as="geometry" />
        </mxCell>
        <mxCell id="QSDiJJws5jMQY8qZcdJ0-77" value="7、发送handler消息.Launcher_ACTIVITY" style="edgeLabel;html=1;align=center;verticalAlign=middle;resizable=0;points=[];" parent="QSDiJJws5jMQY8qZcdJ0-76" vertex="1" connectable="0">
          <mxGeometry x="-0.2209" relative="1" as="geometry">
            <mxPoint as="offset" />
          </mxGeometry>
        </mxCell>
        <mxCell id="QSDiJJws5jMQY8qZcdJ0-57" value="ApplicationThread" style="rounded=0;whiteSpace=wrap;html=1;" parent="1" vertex="1">
          <mxGeometry x="1730" y="470" width="180" height="30" as="geometry" />
        </mxCell>
        <mxCell id="QSDiJJws5jMQY8qZcdJ0-78" value="" style="edgeStyle=orthogonalEdgeStyle;rounded=0;orthogonalLoop=1;jettySize=auto;html=1;" parent="1" source="QSDiJJws5jMQY8qZcdJ0-58" target="QSDiJJws5jMQY8qZcdJ0-59" edge="1">
          <mxGeometry relative="1" as="geometry" />
        </mxCell>
        <mxCell id="QSDiJJws5jMQY8qZcdJ0-79" value="8、handleLauncherActivity()" style="edgeLabel;html=1;align=center;verticalAlign=middle;resizable=0;points=[];" parent="QSDiJJws5jMQY8qZcdJ0-78" vertex="1" connectable="0">
          <mxGeometry x="-0.1901" relative="1" as="geometry">
            <mxPoint as="offset" />
          </mxGeometry>
        </mxCell>
        <mxCell id="QSDiJJws5jMQY8qZcdJ0-58" value="ActivityThread" style="rounded=0;whiteSpace=wrap;html=1;" parent="1" vertex="1">
          <mxGeometry x="1730" y="550" width="180" height="40" as="geometry" />
        </mxCell>
        <mxCell id="QSDiJJws5jMQY8qZcdJ0-59" value="Acivity.onCreate" style="rounded=0;whiteSpace=wrap;html=1;" parent="1" vertex="1">
          <mxGeometry x="1730" y="640" width="180" height="40" as="geometry" />
        </mxCell>
        <mxCell id="QSDiJJws5jMQY8qZcdJ0-60" value="" style="endArrow=classic;html=1;rounded=0;exitX=1;exitY=0.5;exitDx=0;exitDy=0;entryX=0;entryY=0.5;entryDx=0;entryDy=0;" parent="1" source="QSDiJJws5jMQY8qZcdJ0-52" target="QSDiJJws5jMQY8qZcdJ0-53" edge="1">
          <mxGeometry width="50" height="50" relative="1" as="geometry">
            <mxPoint x="2070" y="530" as="sourcePoint" />
            <mxPoint x="2120" y="480" as="targetPoint" />
          </mxGeometry>
        </mxCell>
        <mxCell id="QSDiJJws5jMQY8qZcdJ0-61" value="1、发送startActivity()" style="edgeLabel;html=1;align=center;verticalAlign=middle;resizable=0;points=[];" parent="QSDiJJws5jMQY8qZcdJ0-60" vertex="1" connectable="0">
          <mxGeometry x="-0.1084" y="-1" relative="1" as="geometry">
            <mxPoint as="offset" />
          </mxGeometry>
        </mxCell>
        <mxCell id="QSDiJJws5jMQY8qZcdJ0-62" value="" style="endArrow=classic;html=1;rounded=0;exitX=1;exitY=0.5;exitDx=0;exitDy=0;entryX=1;entryY=0.5;entryDx=0;entryDy=0;" parent="1" source="QSDiJJws5jMQY8qZcdJ0-53" target="QSDiJJws5jMQY8qZcdJ0-48" edge="1">
          <mxGeometry width="50" height="50" relative="1" as="geometry">
            <mxPoint x="2070" y="710" as="sourcePoint" />
            <mxPoint x="2120" y="660" as="targetPoint" />
            <Array as="points">
              <mxPoint x="2440" y="360" />
              <mxPoint x="2440" y="865" />
            </Array>
          </mxGeometry>
        </mxCell>
        <mxCell id="QSDiJJws5jMQY8qZcdJ0-63" value="2、发送创建进程的请求" style="edgeLabel;html=1;align=center;verticalAlign=middle;resizable=0;points=[];" parent="QSDiJJws5jMQY8qZcdJ0-62" vertex="1" connectable="0">
          <mxGeometry x="0.1973" y="1" relative="1" as="geometry">
            <mxPoint as="offset" />
          </mxGeometry>
        </mxCell>
        <mxCell id="QSDiJJws5jMQY8qZcdJ0-64" value="" style="endArrow=classic;html=1;rounded=0;exitX=0.25;exitY=0;exitDx=0;exitDy=0;entryX=0.5;entryY=1;entryDx=0;entryDy=0;" parent="1" source="QSDiJJws5jMQY8qZcdJ0-48" target="QSDiJJws5jMQY8qZcdJ0-54" edge="1">
          <mxGeometry width="50" height="50" relative="1" as="geometry">
            <mxPoint x="2030" y="740" as="sourcePoint" />
            <mxPoint x="2080" y="690" as="targetPoint" />
          </mxGeometry>
        </mxCell>
        <mxCell id="QSDiJJws5jMQY8qZcdJ0-65" value="3、fork新进程" style="edgeLabel;html=1;align=center;verticalAlign=middle;resizable=0;points=[];" parent="QSDiJJws5jMQY8qZcdJ0-64" vertex="1" connectable="0">
          <mxGeometry x="-0.0137" y="2" relative="1" as="geometry">
            <mxPoint as="offset" />
          </mxGeometry>
        </mxCell>
        <mxCell id="QSDiJJws5jMQY8qZcdJ0-66" value="" style="endArrow=classic;html=1;rounded=0;exitX=0;exitY=0.5;exitDx=0;exitDy=0;entryX=0.25;entryY=1;entryDx=0;entryDy=0;" parent="1" source="QSDiJJws5jMQY8qZcdJ0-54" target="QSDiJJws5jMQY8qZcdJ0-53" edge="1">
          <mxGeometry width="50" height="50" relative="1" as="geometry">
            <mxPoint x="2030" y="560" as="sourcePoint" />
            <mxPoint x="2080" y="510" as="targetPoint" />
            <Array as="points">
              <mxPoint x="1690" y="750" />
              <mxPoint x="1690" y="420" />
              <mxPoint x="2210" y="420" />
            </Array>
          </mxGeometry>
        </mxCell>
        <mxCell id="QSDiJJws5jMQY8qZcdJ0-67" value="4、发送attach Application" style="edgeLabel;html=1;align=center;verticalAlign=middle;resizable=0;points=[];" parent="QSDiJJws5jMQY8qZcdJ0-66" vertex="1" connectable="0">
          <mxGeometry x="0.4055" y="5" relative="1" as="geometry">
            <mxPoint as="offset" />
          </mxGeometry>
        </mxCell>
        <mxCell id="OkloaxbOrVz3HsjoAPts-1" style="edgeStyle=orthogonalEdgeStyle;rounded=0;orthogonalLoop=1;jettySize=auto;html=1;exitX=0.5;exitY=0;exitDx=0;exitDy=0;entryX=0.5;entryY=0.25;entryDx=0;entryDy=0;entryPerimeter=0;" edge="1" parent="1" source="QSDiJJws5jMQY8qZcdJ0-54" target="QSDiJJws5jMQY8qZcdJ0-54">
          <mxGeometry relative="1" as="geometry" />
        </mxCell>
      </root>
    </mxGraphModel>
  </diagram>
</mxfile>
